PathFileType	4	(X/Y/Z)	Patient4_TMGait_0pt5_02_right_13.trc.trc
DataRate	CameraRate	NumFrames	NumMarkers	Units	OrigDataRate	OrigDataStartFrame	OrigNumFrames
76.086956521739	76.086956521739	7	33	mm	76.086956521739	89	       141
Frame#	Time	Sacral			L.Shoulder			Chest			R.Shoulder			Neck			R.ASIS			L.ASIS			R.Thigh.Superior			R.Thigh.Lateral			R.Thigh.Inferior			R.Patella			L.Thigh.Superior			L.Thigh.Lateral			L.Thigh.Inferior			L.Patella			L.Shank.Superior			L.Shank.Lateral			L.Shank.Inferior			R.Shank.Superior			R.Shank.Lateral			R.Shank.Inferior			R.Heel			R.Midfoot.Superior			R.Midfoot.Lateral			R.Toe			L.Heel			L.Midfoot.Lateral			L.Midfoot.Superior			L.Toe			L.Elbow			L.Wrist			R.Elbow			R.Wrist			
		X1	Y1	Z1	X2	Y2	Z2	X3	Y3	Z3	X4	Y4	Z4	X5	Y5	Z5	X6	Y6	Z6	X7	Y7	Z7	X8	Y8	Z8	X9	Y9	Z9	X10	Y10	Z10	X11	Y11	Z11	X12	Y12	Z12	X13	Y13	Z13	X14	Y14	Z14	X15	Y15	Z15	X16	Y16	Z16	X17	Y17	Z17	X18	Y18	Z18	X19	Y19	Z19	X20	Y20	Z20	X21	Y21	Z21	X22	Y22	Z22	X23	Y23	Z23	X24	Y24	Z24	X25	Y25	Z25	X26	Y26	Z26	X27	Y27	Z27	X28	Y28	Z28	X29	Y29	Z29	X30	Y30	Z30	X31	Y31	Z31	X32	Y32	Z32	X33	Y33	Z33	

89	18.166571428571	619.735643984706	1010.221453042585	480.612294581903	788.387768968086	1435.629961512676	300.108473329708	897.888527813445	1362.566893476898	455.754911907449	822.806073718902	1434.561180039054	634.860650953782	793.101283875667	1495.316377146846	451.495858090858	844.595024832411	939.445536947028	594.769087527669	830.557275615608	956.136673319684	321.007324531487	858.809904271430	728.235970668071	579.092044318689	761.788590931380	630.510521057436	640.279560993826	836.332374435261	562.593160936938	570.016880868990	818.310978910505	459.335144156538	587.200965040471	895.432400892970	760.962104260343	360.154737348095	825.440647730330	635.549932917874	297.235431357250	917.664902996240	567.611819240213	363.411845922749	926.383504769441	494.609662257862	372.314657329398	899.430822132756	420.715089855720	364.279226506425	814.259531529637	305.331216988612	309.838954867239	863.030814255411	194.682156935926	381.448221524759	747.231746636308	391.127530121516	589.408278449101	631.492499353132	336.978857008347	646.615450649717	629.732294586617	228.476207877837	592.722970797339	434.460309767984	132.030973473129	561.825193214781	611.054196298879	109.628531162525	595.387985410258	505.866125922800	83.019333785612	630.820557444803	698.935501184923	33.546889379842	615.496988435548	733.713951297191	38.659953104637	417.331263808136	810.078892845055	36.021639652085	339.170756676443	893.059738311369	96.367452958451	368.377015590948	1021.855166048978	42.231425479960	343.353329631491	727.020909609375	1082.946719246621	187.948649440076	802.071441995948	832.350127294001	183.974168535156	847.227132281798	1083.827652235267	745.543702604468	1028.749515331815	898.714206992249	742.115314303313	
90	18.179714285714	619.653173993786	1010.450696662664	477.568583613249	790.045092907254	1436.018353675324	297.686750468674	898.316160190976	1362.787753894132	454.131686165786	821.952711718278	1434.760757875802	632.710358626864	793.446022467493	1495.641459597108	449.165316037738	843.961002092279	940.017755695182	592.890973040378	831.302544479889	956.238260978243	319.072564131778	862.995101418662	729.911835853929	577.783135956175	768.761158392835	630.449943542384	639.491861952337	845.203652802715	563.574412384307	569.497807023035	828.333344141653	458.842370313044	587.896093936190	894.792763882253	759.944145453524	357.159020911437	822.919068254338	635.345821376740	295.213316309482	914.609516163084	566.616244848066	361.054345668627	922.643952832045	493.752610810326	370.262877084140	895.297817668102	419.912915075005	362.599723472758	809.399613229549	304.863691029485	308.639465015139	857.413042118006	194.230000034099	380.715694247932	755.248585565162	391.616420160593	589.779149405637	637.677321044223	341.307136229417	646.846305079487	632.820210710078	232.746649467712	593.469757329249	434.900663092613	144.737995225085	562.679701220513	610.112351347361	113.208324958766	596.346772491216	503.629020812648	91.671462554163	631.262108585716	693.095372181108	32.470781669440	615.692999145271	727.144568331581	38.649862760123	417.198308112629	803.499083880087	35.930203672031	339.008900565923	886.551712137217	96.191571809317	368.196402681189	1015.346790557231	41.857552807413	343.266697894847	733.796322922072	1083.171908236290	183.001357726061	818.521003505350	835.558149522069	178.411778719700	838.724168017032	1083.626741057441	743.683596101729	1005.444350403037	884.283915499837	742.941638944202	
91	18.192857142857	619.319821494789	1010.589144142629	474.707664968262	791.699273371187	1436.235009315245	295.371679472057	898.663656821140	1362.831887316183	452.656545104108	821.024041067118	1434.866834638725	630.687060222929	793.839973668833	1495.859125934045	446.913869965403	843.078093124713	940.504253748711	591.237631970869	831.791473100015	956.292671281821	317.324841870484	867.410279959940	731.878880419371	576.394768124152	776.394414080521	630.516461255125	638.756015549752	854.682468637310	564.899671774462	568.849938447072	839.152753356837	458.715487473967	588.325673917664	893.875802725383	758.940362843157	354.267577401892	820.155211190166	635.186754239638	293.265167851926	911.304802309907	565.648758951698	358.754258107362	918.654717575744	492.928963676225	368.248661351548	890.957144884368	419.161552352149	360.942187824263	804.372957896275	304.425677285501	307.444093516335	851.696615009973	193.811256044449	379.971380514722	764.143062263183	392.359148200859	589.957668641718	644.909126107581	345.920509342353	646.991818228150	636.775436761977	237.498345202771	594.020281060389	436.533233822789	158.326710644815	563.385481665159	609.934576881384	117.584972485701	597.257107715443	502.329562010732	101.329034662857	631.658140491379	687.752492981843	31.430385584661	616.003684477410	720.573672337069	38.637603368911	417.056880052666	796.914044877330	35.845682720718	338.834027859870	880.024388929570	96.033881994351	367.995611767658	1008.820927557593	41.554795433540	343.167553560239	740.894103827310	1083.332032798873	178.060652570967	835.371992128839	839.161234444996	172.963420848819	829.783755420555	1083.540888197899	741.904810788522	981.021103362369	871.503038559741	743.406526676338	
92	18.206000000000	618.745633979245	1010.654535874774	472.046003323580	793.312539091589	1436.292727047008	293.184657650447	898.905977385293	1362.730774145421	451.345570496152	819.997989401678	1434.908878268236	628.811975401014	794.269871356370	1495.988663445419	444.757802463707	841.969733762032	940.915219790020	589.819607672235	832.034639954555	956.330192653576	315.780056444127	871.941408528646	734.164726944545	574.939354000279	784.500126331693	630.804612948703	638.055079148846	864.551923860435	566.635627406908	568.076941815351	850.567908963202	459.044826193646	588.472829999410	892.679314234438	757.962551425414	351.528540297821	817.170857179912	635.071085739547	291.428971069609	907.773455440624	564.716606892501	356.567103422310	914.444216539611	492.145665798687	366.332740387234	886.430423594135	418.468924770528	359.358265318107	799.202769670174	304.031830014693	306.288705180743	845.889410142079	193.430565941607	379.242652333495	773.742451140931	393.421800461540	589.934749573953	653.027296638356	350.793116782329	647.013305237649	641.552054672763	242.683311787913	594.351373688109	439.373341424405	172.434451730142	563.884680658769	610.605785891426	122.709245692225	598.080824500726	502.081883931116	111.757066497695	631.969453560609	683.137043236661	30.599794066859	616.426776969688	714.001133503497	38.628295361740	416.911033657141	790.324467882613	35.771297546036	338.654065767413	873.480658270126	95.896756465240	367.783440270873	1002.279041530894	41.315469416144	343.058020217349	748.308090668619	1083.437038674182	173.192025978098	852.525927560915	843.163702168033	167.684396512252	820.335589075493	1083.610536564802	740.212619842456	955.735454959132	860.505988913028	743.498600197307	
93	18.219142857143	617.950447589494	1010.678455057019	469.595795844946	794.855702526353	1436.218881907547	291.143771718023	899.025077156320	1362.528504926219	450.212161692119	818.855488510895	1434.925615050569	627.099781697429	794.718522251537	1496.058310185939	442.712158173266	840.669876156139	941.270559569916	588.629197927132	832.053354103214	956.385216160550	314.440226666690	876.464396936616	736.783023966910	573.441117236129	792.861217997327	631.399229848051	637.379776599288	874.577599181931	568.834343246494	567.199629561338	862.351843422755	459.905573166637	588.351087749474	891.205745690489	757.018689178555	348.984382902877	813.986791442601	634.997301224112	289.735935070427	904.032890079060	563.825102523024	354.543378103012	910.031821843183	491.407945521130	364.567595491522	881.731967475504	417.842007490907	357.891191538662	793.904578093085	303.693511931125	305.204966787558	839.998231953415	193.092422851092	378.552421206901	783.854117667465	394.859163471092	589.726073373535	661.842650699186	355.877418283692	646.887840560199	647.096700921052	248.211857889783	594.464458537186	443.394419359782	186.606669400007	564.140909004569	612.219738376004	128.457447650994	598.788582273475	502.990228206220	122.621825361854	632.167951460712	679.525443400988	30.175044604027	616.947774896598	707.426109933043	38.627173795118	416.764124957553	783.730985189713	35.709057252935	338.476233216980	866.923886221053	95.780843667808	367.567714274618	995.722798054871	41.128435634308	342.941086694774	756.013223597892	1083.515929068557	168.463917311203	869.873036617633	847.578041355080	162.631041342276	810.326943119821	1083.893429848373	738.605965644693	929.857201894112	851.374052484206	743.220987197226	
94	18.232285714286	616.961833686531	1010.701420997840	467.365230304851	796.309983787768	1436.052855072847	289.264154762513	899.011987503028	1362.276839778475	449.266473579929	817.584276919307	1434.960837503481	625.557628205441	795.166271898985	1496.101960726077	440.791880306581	839.217460390246	941.598023886809	587.643368660736	831.879099575031	956.494123574704	313.293559683799	880.855258452902	739.732150643266	571.931528465732	801.252826604361	632.364957832088	636.728403604415	884.528729667901	571.527854489158	566.251867443170	874.272469585151	461.351349189375	588.000502338417	889.464663536218	756.114543060362	346.671002723110	810.622260112872	634.964645141295	288.210387794905	900.095126217010	562.977813362825	352.726035277851	905.427531212162	490.719453233919	362.996573208639	876.869180187782	417.287066066233	356.574613966895	788.486995392140	303.419324222703	304.218089366232	834.028718005919	192.801355202562	377.918427783164	794.283761925790	396.707527534809	589.367910441274	671.158447061625	361.100895128559	646.611769802445	653.356134471301	253.954616824131	594.384367206247	448.533316882890	200.333367096044	564.146807848535	614.874348576344	134.637441607777	599.361487338869	505.144380966136	133.516666617101	632.243180944677	677.228426357703	30.339740333826	617.542246822656	700.846958799573	38.638819565127	416.618409085798	777.134082202032	35.659913078985	338.306187365747	860.357372432549	95.685766976032	367.354763613835	989.153758893043	40.981701594905	342.820210280644	763.965884527570	1083.613189203782	163.944298005411	887.295726724996	852.423714691841	157.859164408515	799.728513237707	1084.459948319848	737.078735808299	903.656410992213	844.136396886462	742.592791755010	
95	18.245428571429	615.812587595171	1010.766274422138	465.358209054228	797.667522690111	1435.841552458922	287.558192132012	898.867497718518	1362.029228945112	448.514937751230	816.180816345070	1435.058353907360	624.184879977051	795.592656231496	1496.155025907259	439.012043271280	837.652477573805	941.931282867040	586.831125702661	831.551794793617	956.691384278984	312.318309525725	885.000155482235	742.995737743152	570.444396148795	809.463308174576	633.739389261333	636.105188547495	894.196875959830	574.725000094172	565.274981872329	886.111557438101	463.410307453665	587.479512364401	887.473621655030	755.254201417664	344.617462135368	807.094835793069	634.973418920215	286.870275339960	895.967311670400	562.176649058018	351.148518424024	900.632902460113	490.082419821070	361.653133258454	871.843856528631	416.809488647714	355.432271127795	782.953412017454	303.215254730363	303.345546264989	827.985561528805	192.561770344974	377.353205255137	804.851545024235	398.979420636463	588.910095916862	680.789952935892	366.364878262851	646.202275392829	660.282936331524	259.749163586267	594.154982148572	454.701314793340	213.095125724259	563.926790375448	618.664907807561	141.003340513435	599.792989968569	508.615212334742	143.998200448219	632.205729608929	676.567853784495	31.222197334399	618.181089960465	694.261227966482	38.666447188267	416.474939052390	770.534031122046	35.623768509835	338.147724499738	853.783991236474	95.610613932867	367.149217564932	982.573193011641	40.864357634098	342.699017402741	772.105334826444	1083.782606761288	159.696816309752	904.673059669697	857.724328983647	153.422197169208	788.540081089461	1085.386898070559	735.621928718440	877.391334684402	838.772891169345	741.649564881837	
